<?xml version="1.0" encoding="UTF-8"?>
<svg version="1.1" xmlns="http://www.w3.org/2000/svg" width="192" height="192">
<path d="M0 0 C2.6406874 2.49243828 4.833527 5.09308686 7 8 C7.66386719 8.80695312 8.32773438 9.61390625 9.01171875 10.4453125 C14.61505537 17.55046762 17.37583147 24.44048034 20 33 C20.33 33.99 20.66 34.98 21 36 C21.29005124 40.30756102 21.2779703 44.62128764 21.3125 48.9375 C21.34150391 50.11119141 21.37050781 51.28488281 21.40039062 52.49414062 C21.53039406 70.5846182 13.25463447 84.47401517 0.94921875 97.12890625 C-7.97946081 106 -7.97946081 106 -12 106 C-12 106.66 -12 107.32 -12 108 C-12.66 108.33 -13.32 108.66 -14 109 C-9.34523888 120.24900604 -3.71612747 130.71007614 4.53125 139.71875 C6.42406068 142.65864744 6.35989121 144.56682728 6 148 C4.62380912 149.99547677 3.58310459 150.75981644 1.359375 151.67578125 C-2.10652638 152.15205578 -5.16946375 151.25329686 -8.5 150.375 C-9.21341553 150.18969727 -9.92683105 150.00439453 -10.66186523 149.81347656 C-27.1326476 145.37498751 -43.72993648 136.78612246 -57 126 C-57 125.34 -57 124.68 -57 124 C-58.11375 124.165 -59.2275 124.33 -60.375 124.5 C-86.41060595 127.26196756 -111.04822238 122.31331853 -134 110 C-135.33071388 109.32811995 -136.66279465 108.65886574 -138 108 C-138 107.34 -138 106.68 -138 106 C-138.72703125 105.75121094 -139.4540625 105.50242188 -140.203125 105.24609375 C-153.10251247 99.49902028 -163.84334134 83.70529792 -168.8137207 70.90429688 C-171.23940954 63.80640464 -171.48345985 57.07885176 -171.4375 49.625 C-171.45748047 48.48289062 -171.47746094 47.34078125 -171.49804688 46.1640625 C-171.4884176 29.21653547 -163.74965116 15.6549065 -153 3 C-146.26012296 -3.18277213 -138.88781287 -8.39490925 -131 -13 C-130.2471875 -13.43957031 -129.494375 -13.87914062 -128.71875 -14.33203125 C-88.03674293 -36.27523712 -35.0176114 -29.19943418 0 0 Z " fill="#31373D" transform="translate(171,36)"/>
<path d="M0 0 C1.44366943 0.00362549 1.44366943 0.00362549 2.91650391 0.00732422 C16.97664553 0.36759916 27.90455643 6.74510337 37.5 16.75 C45.74464308 26.43624079 48.90959331 38.60843901 48.56640625 51.21484375 C47.09099179 64.85675286 41.35471292 76.00475774 31.3671875 85.390625 C26.47565346 89.31177374 21.17069714 91.46004752 15.3125 93.5625 C14.58675781 93.92085938 13.86101562 94.27921875 13.11328125 94.6484375 C3.86857011 97.66553988 -9.46072645 96.83460216 -18.24609375 92.875 C-19.05175781 92.441875 -19.85742188 92.00875 -20.6875 91.5625 C-21.60660156 91.088125 -22.52570313 90.61375 -23.47265625 90.125 C-35.24525134 83.38854944 -42.27160779 73.0079388 -46.4296875 60.29296875 C-49.52726214 48.51794185 -48.06486389 35.77087389 -42.5625 24.9375 C-35.65243217 13.5852457 -25.88263254 5.19177447 -13.16357422 1.16235352 C-8.78882047 0.10252607 -4.4856285 -0.01180221 0 0 Z " fill="#FBFBFB" transform="translate(95.6875,37.4375)"/>
<path d="M0 0 C6.44845897 3.35462112 12.37963037 7.95452109 14.6796875 15.09765625 C16.19836066 22.86420405 16.35642607 31.55011925 12.125 38.375 C7.18882951 45.23079235 2.06141186 48.72952938 -5.875 51.375 C-13.3631113 52.12381113 -19.42591813 51.36977541 -25.875 47.375 C-30.588555 43.41132875 -34.91008734 38.26973799 -36.875 32.375 C-38.32543724 15.00647308 -38.32543724 15.00647308 -32.72265625 8.171875 C-23.5727746 -0.72652999 -12.58271481 -5.18874838 0 0 Z " fill="#33393F" transform="translate(106.875,60.625)"/>
</svg>
